0
SECTION
2
HEADER
9
$INSUNITS
70
4
9
$ACADVER
1
AC1014
9
$HANDSEED
5
FFFF
0
ENDSEC
0
SECTION
2
TABLES
0
TABLE
2
VPORT
5
8
100
AcDbSymbolTable
0
ENDTAB
0
TABLE
2
LTYPE
5
5
100
AcDbSymbolTable
0
LTYPE
5
14
100
AcDbSymbolTableRecord
100
AcDbLinetypeTableRecord
2
BYBLOCK
70
0
0
LTYPE
5
15
100
AcDbSymbolTableRecord
100
AcDbLinetypeTableRecord
2
BYLAYER
70
0
0
ENDTAB
0
TABLE
2
LAYER
5
2
100
AcDbSymbolTable
70
2
0
LAYER
5
50
100
AcDbSymbolTableRecord
100
AcDbLayerTableRecord
2
0
70
0
6
CONTINUOUS
0
ENDTAB
0
TABLE
2
STYLE
5
3
100
AcDbSymbolTable
70
1
0
STYLE
5
11
100
AcDbSymbolTableRecord
100
AcDbTextStyleTableRecord
2
STANDARD
70
0
0
ENDTAB
0
TABLE
2
VIEW
5
6
100
AcDbSymbolTable
70
0
0
ENDTAB
0
TABLE
2
UCS
5
7
100
AcDbSymbolTable
70
0
0
ENDTAB
0
TABLE
2
APPID
5
9
100
AcDbSymbolTable
70
2
0
APPID
5
12
100
AcDbSymbolTableRecord
100
AcDbRegAppTableRecord
2
ACAD
70
0
0
ENDTAB
0
TABLE
2
DIMSTYLE
5
A
100
AcDbSymbolTable
70
1
0
ENDTAB
0
TABLE
2
BLOCK_RECORD
5
1
100
AcDbSymbolTable
70
1
0
BLOCK_RECORD
5
1F
100
AcDbSymbolTableRecord
100
AcDbBlockTableRecord
2
*MODEL_SPACE
0
BLOCK_RECORD
5
1B
100
AcDbSymbolTableRecord
100
AcDbBlockTableRecord
2
*PAPER_SPACE
0
ENDTAB
0
ENDSEC
0
SECTION
2
BLOCKS
0
BLOCK
5
20
100
AcDbEntity
100
AcDbBlockBegin
2
*MODEL_SPACE
0
ENDBLK
5
21
100
AcDbEntity
100
AcDbBlockEnd
0
BLOCK
5
1C
100
AcDbEntity
100
AcDbBlockBegin
2
*PAPER_SPACE
0
ENDBLK
5
1D
100
AcDbEntity
100
AcDbBlockEnd
0
ENDSEC
0
SECTION
2
ENTITIES
0
LWPOLYLINE
5
100
100
AcDbEntity
8
0
100
AcDbPolyline
90
28
70
1
43
0.0
10
-117.00000000000001
20
-47.625
10
-142.875
20
-47.625
10
-142.875
20
-45.125
10
-148.875
20
-45.125
10
-148.875
20
45.125
10
-142.875
20
45.125
10
-142.875
20
47.625
10
-117.00000000000001
20
47.625
10
-117.00000000000001
20
53.625000000000007
10
-26.750000000000004
20
53.625000000000007
10
-26.750000000000004
20
47.625
10
26.750000000000004
20
47.625
10
26.750000000000007
20
53.625000000000007
10
117.00000000000001
20
53.625000000000007
10
117.00000000000001
20
47.625
10
142.875
20
47.625
10
142.875
20
45.125
10
148.875
20
45.125
10
148.875
20
-45.125
10
142.875
20
-45.125
10
142.875
20
-47.625
10
117.00000000000001
20
-47.625
10
117.00000000000001
20
-53.625000000000007
10
26.750000000000004
20
-53.625000000000007
10
26.750000000000004
20
-47.625
10
-26.750000000000004
20
-47.625
10
-26.750000000000007
20
-53.625000000000007
10
-117.00000000000001
20
-53.625000000000007
0
LWPOLYLINE
5
101
100
AcDbEntity
8
0
100
AcDbPolyline
90
8
70
1
43
0.0
10
111.77500000000002
20
-25.550000000000001
42
-0.41421356237309503
10
111.27500000000001
20
-26.050000000000001
10
98.275000000000006
20
-26.050000000000008
42
-0.41421356237309503
10
97.775000000000006
20
-25.550000000000001
10
97.775000000000006
20
-12.550000000000001
42
-0.41421356237309503
10
98.275000000000006
20
-12.050000000000001
10
111.27500000000001
20
-12.049999999999994
42
-0.41421356237309503
10
111.77500000000002
20
-12.550000000000001
0
LWPOLYLINE
5
102
100
AcDbEntity
8
0
100
AcDbPolyline
90
8
70
1
43
0.0
10
-114.44374999999999
20
-6.5000000000000107
42
-0.41421356237309503
10
-114.94374999999999
20
-7.0000000000000107
10
-127.94375000000001
20
-7.0000000000000178
42
-0.41421356237309503
10
-128.44375000000002
20
-6.5000000000000107
10
-128.44375000000002
20
6.4999999999999902
42
-0.41421356237309503
10
-127.94375000000001
20
6.9999999999999911
10
-114.94374999999999
20
6.9999999999999973
42
-0.41421356237309503
10
-114.44374999999999
20
6.4999999999999902
0
LWPOLYLINE
5
103
100
AcDbEntity
8
0
100
AcDbPolyline
90
8
70
1
43
0.0
10
-31.100000000000001
20
-44.600000000000001
42
-0.41421356237309503
10
-31.600000000000001
20
-45.099999999999994
10
-44.600000000000001
20
-45.099999999999994
42
-0.41421356237309503
10
-45.099999999999994
20
-44.600000000000001
10
-45.099999999999994
20
-31.600000000000001
42
-0.41421356237309503
10
-44.600000000000001
20
-31.100000000000001
10
-31.600000000000001
20
-31.100000000000001
42
-0.41421356237309503
10
-31.100000000000001
20
-31.600000000000001
0
LWPOLYLINE
5
104
100
AcDbEntity
8
0
100
AcDbPolyline
90
8
70
1
43
0.0
10
-64.4375
20
-6.5000000000000107
42
-0.41421356237309503
10
-64.9375
20
-7.0000000000000107
10
-77.9375
20
-7.0000000000000089
42
-0.41421356237309503
10
-78.4375
20
-6.5000000000000107
10
-78.4375
20
6.4999999999999902
42
-0.41421356237309503
10
-77.9375
20
6.9999999999999911
10
-64.9375
20
6.9999999999999885
42
-0.41421356237309503
10
-64.4375
20
6.4999999999999902
0
LWPOLYLINE
5
105
100
AcDbEntity
8
0
100
AcDbPolyline
90
8
70
1
43
0.0
10
121.29999999999998
20
-44.600000000000001
42
-0.41421356237309503
10
120.8
20
-45.099999999999994
10
107.80000000000001
20
-45.100000000000009
42
-0.41421356237309503
10
107.30000000000001
20
-44.600000000000001
10
107.30000000000001
20
-31.600000000000001
42
-0.41421356237309503
10
107.80000000000001
20
-31.100000000000001
10
120.8
20
-31.099999999999994
42
-0.41421356237309503
10
121.30000000000001
20
-31.600000000000001
0
LWPOLYLINE
5
106
100
AcDbEntity
8
0
100
AcDbPolyline
90
8
70
1
43
0.0
10
49.862499999999997
20
-6.5000000000000107
42
-0.41421356237309503
10
49.362500000000004
20
-7.0000000000000107
10
36.362499999999997
20
-7.0000000000000089
42
-0.41421356237309503
10
35.862500000000004
20
-6.5000000000000107
10
35.862499999999997
20
6.4999999999999902
42
-0.41421356237309503
10
36.362499999999997
20
6.9999999999999911
10
49.362500000000004
20
6.9999999999999885
42
-0.41421356237309503
10
49.862499999999997
20
6.4999999999999902
0
LWPOLYLINE
5
107
100
AcDbEntity
8
0
100
AcDbPolyline
90
8
70
1
43
0.0
10
-45.387500000000003
20
-6.5000000000000107
42
-0.41421356237309503
10
-45.887500000000003
20
-7.0000000000000107
10
-58.88750000000001
20
-7.0000000000000089
42
-0.41421356237309503
10
-59.387500000000003
20
-6.5000000000000107
10
-59.387500000000003
20
6.4999999999999902
42
-0.41421356237309503
10
-58.88750000000001
20
6.9999999999999911
10
-45.887500000000003
20
6.9999999999999885
42
-0.41421356237309503
10
-45.387500000000003
20
6.4999999999999902
0
LWPOLYLINE
5
108
100
AcDbEntity
8
0
100
AcDbPolyline
90
8
70
1
43
0.0
10
-78.724999999999994
20
-25.550000000000001
42
-0.41421356237309503
10
-79.224999999999994
20
-26.050000000000001
10
-92.224999999999994
20
-26.050000000000008
42
-0.41421356237309503
10
-92.725000000000009
20
-25.550000000000001
10
-92.725000000000009
20
-12.550000000000001
42
-0.41421356237309503
10
-92.224999999999994
20
-12.050000000000001
10
-79.224999999999994
20
-12.050000000000002
42
-0.41421356237309503
10
-78.724999999999994
20
-12.550000000000001
0
LWPOLYLINE
5
109
100
AcDbEntity
8
0
100
AcDbPolyline
90
8
70
1
43
0.0
10
102.25000000000001
20
-44.600000000000001
10
102.25000000000001
20
-31.600000000000001
42
0.41421356237309503
10
101.75
20
-31.100000000000001
10
88.75
20
-31.100000000000001
42
0.41421356237309503
10
88.250000000000014
20
-31.600000000000001
10
88.25
20
-44.600000000000001
42
0.41421356237309503
10
88.75
20
-45.100000000000009
10
101.75
20
-45.099999999999994
42
0.41421356237309503
0
LWPOLYLINE
5
110
100
AcDbEntity
8
0
100
AcDbPolyline
90
8
70
1
43
0.0
10
64.150000000000006
20
-44.600000000000001
42
-0.41421356237309503
10
63.650000000000006
20
-45.099999999999994
10
50.650000000000006
20
-45.099999999999994
42
-0.41421356237309503
10
50.150000000000006
20
-44.600000000000001
10
50.150000000000006
20
-31.600000000000001
42
-0.41421356237309503
10
50.650000000000006
20
-31.100000000000001
10
63.650000000000006
20
-31.100000000000001
42
-0.41421356237309503
10
64.150000000000006
20
-31.600000000000001
0
LWPOLYLINE
5
111
100
AcDbEntity
8
0
100
AcDbPolyline
90
8
70
1
43
0.0
10
-12.050000000000002
20
-44.600000000000001
42
-0.41421356237309503
10
-12.550000000000001
20
-45.099999999999994
10
-25.550000000000001
20
-45.099999999999994
42
-0.41421356237309503
10
-26.050000000000001
20
-44.600000000000001
10
-26.050000000000001
20
-31.600000000000001
42
-0.41421356237309503
10
-25.550000000000001
20
-31.100000000000001
10
-12.550000000000001
20
-31.100000000000001
42
-0.41421356237309503
10
-12.050000000000001
20
-31.600000000000001
0
LWPOLYLINE
5
112
100
AcDbEntity
8
0
100
AcDbPolyline
90
8
70
1
43
0.0
10
93.512500000000003
20
-7.0000000000000178
42
-0.41421356237309503
10
93.012499999999989
20
-6.5000000000000107
10
93.012499999999989
20
6.4999999999999902
42
-0.41421356237309503
10
93.512500000000003
20
6.9999999999999911
10
106.51250000000002
20
6.9999999999999973
42
-0.41421356237309503
10
107.01250000000002
20
6.4999999999999902
10
107.01250000000002
20
-6.5000000000000107
42
-0.41421356237309503
10
106.51250000000002
20
-7.0000000000000107
0
LWPOLYLINE
5
113
100
AcDbEntity
8
0
100
AcDbPolyline
90
8
70
1
43
0.0
10
-69.200000000000003
20
-44.600000000000001
42
-0.41421356237309503
10
-69.700000000000003
20
-45.099999999999994
10
-82.700000000000017
20
-45.100000000000009
42
-0.41421356237309503
10
-83.200000000000017
20
-44.600000000000001
10
-83.200000000000003
20
-31.600000000000001
42
-0.41421356237309503
10
-82.700000000000017
20
-31.100000000000001
10
-69.700000000000003
20
-31.100000000000001
42
-0.41421356237309503
10
-69.200000000000003
20
-31.600000000000001
0
LWPOLYLINE
5
114
100
AcDbEntity
8
0
100
AcDbPolyline
90
8
70
1
43
0.0
10
26.050000000000001
20
-44.600000000000001
42
-0.41421356237309503
10
25.550000000000001
20
-45.099999999999994
10
12.550000000000001
20
-45.099999999999994
42
-0.41421356237309503
10
12.050000000000001
20
-44.600000000000001
10
12.050000000000002
20
-31.600000000000001
42
-0.41421356237309503
10
12.550000000000001
20
-31.100000000000001
10
25.550000000000001
20
-31.100000000000001
42
-0.41421356237309503
10
26.050000000000001
20
-31.600000000000001
0
LWPOLYLINE
5
115
100
AcDbEntity
8
0
100
AcDbPolyline
90
8
70
1
43
0.0
10
-26.337499999999999
20
-6.5000000000000107
10
-26.337499999999999
20
6.4999999999999902
42
0.41421356237309503
10
-26.837499999999999
20
6.9999999999999911
10
-39.837499999999999
20
6.9999999999999911
42
0.41421356237309503
10
-40.337500000000006
20
6.4999999999999902
10
-40.337499999999991
20
-6.5000000000000107
42
0.41421356237309503
10
-39.837499999999999
20
-7.0000000000000107
10
-26.837499999999999
20
-7.0000000000000107
42
0.41421356237309503
0
LWPOLYLINE
5
116
100
AcDbEntity
8
0
100
AcDbPolyline
90
8
70
1
43
0.0
10
140.34999999999999
20
-44.600000000000001
42
-0.41421356237309503
10
139.84999999999999
20
-45.099999999999994
10
126.85000000000001
20
-45.100000000000009
42
-0.41421356237309503
10
126.34999999999999
20
-44.600000000000001
10
126.35000000000002
20
-31.600000000000001
42
-0.41421356237309503
10
126.85000000000001
20
-31.100000000000001
10
139.84999999999999
20
-31.099999999999994
42
-0.41421356237309503
10
140.34999999999999
20
-31.600000000000001
0
LWPOLYLINE
5
117
100
AcDbEntity
8
0
100
AcDbPolyline
90
8
70
1
43
0.0
10
16.524999999999999
20
-25.550000000000001
42
-0.41421356237309503
10
16.024999999999999
20
-26.050000000000001
10
3.0249999999999999
20
-26.050000000000001
42
-0.41421356237308887
10
2.5250000000000106
20
-25.550000000000001
10
2.5250000000000101
20
-12.550000000000001
42
-0.41421356237308887
10
3.0249999999999999
20
-12.050000000000001
10
16.024999999999999
20
-12.050000000000001
42
-0.41421356237309503
10
16.525000000000002
20
-12.550000000000001
0
LWPOLYLINE
5
118
100
AcDbEntity
8
0
100
AcDbPolyline
90
8
70
1
43
0.0
10
139.85025000000002
20
7.0000000000000009
10
119.70625
20
6.9999999999999911
42
0.41421356237309503
10
119.20625000000001
20
6.4999999999999902
10
119.20625
20
-6.5000000000000107
42
0.41421356237309503
10
119.70625
20
-7.0000000000000107
10
139.85025000000002
20
-7.0000000000000107
42
0.41421356237309503
10
140.35024999999999
20
-6.5000000000000107
10
140.35025000000002
20
6.4999999999999902
42
0.41421356237309503
0
LWPOLYLINE
5
119
100
AcDbEntity
8
0
100
AcDbPolyline
90
8
70
1
43
0.0
10
-7.2874999999999996
20
-6.5000000000000107
42
-0.41421356237308915
10
-7.7874999999999917
20
-7.0000000000000107
10
-20.787500000000001
20
-7.0000000000000089
42
-0.41421356237309503
10
-21.287500000000001
20
-6.5000000000000107
10
-21.287500000000001
20
6.4999999999999902
42
-0.41421356237309503
10
-20.787500000000001
20
6.9999999999999911
10
-7.7874999999999917
20
6.9999999999999911
42
-0.41421356237308982
10
-7.2874999999999996
20
6.4999999999999902
0
LWPOLYLINE
5
120
100
AcDbEntity
8
0
100
AcDbPolyline
90
8
70
1
43
0.0
10
135.58750000000001
20
-25.550000000000001
42
-0.41421356237309503
10
135.08750000000001
20
-26.050000000000001
10
122.08750000000002
20
-26.050000000000008
42
-0.41421356237309503
10
121.58750000000001
20
-25.550000000000001
10
121.58750000000001
20
-12.550000000000001
42
-0.41421356237309503
10
122.08750000000002
20
-12.050000000000001
10
135.08750000000001
20
-12.049999999999994
42
-0.41421356237309503
10
135.58750000000001
20
-12.550000000000001
0
LWPOLYLINE
5
121
100
AcDbEntity
8
0
100
AcDbPolyline
90
8
70
1
43
0.0
10
54.625
20
-25.550000000000001
42
-0.41421356237309503
10
54.125000000000007
20
-26.050000000000001
10
41.125
20
-26.050000000000001
42
-0.41421356237309503
10
40.625
20
-25.550000000000001
10
40.625
20
-12.550000000000001
42
-0.41421356237309503
10
41.125
20
-12.050000000000001
10
54.125000000000007
20
-12.050000000000002
42
-0.41421356237309503
10
54.625
20
-12.550000000000001
0
LWPOLYLINE
5
122
100
AcDbEntity
8
0
100
AcDbPolyline
90
8
70
1
43
0.0
10
30.8125
20
-6.5000000000000107
42
-0.41421356237309503
10
30.3125
20
-7.0000000000000107
10
17.3125
20
-7.0000000000000107
42
-0.41421356237309503
10
16.8125
20
-6.5000000000000107
10
16.8125
20
6.4999999999999902
42
-0.41421356237309503
10
17.3125
20
6.9999999999999911
10
30.3125
20
6.9999999999999885
42
-0.41421356237309503
10
30.8125
20
6.4999999999999902
0
LWPOLYLINE
5
123
100
AcDbEntity
8
0
100
AcDbPolyline
90
8
70
1
43
0.0
10
2.2375000000000105
20
12.550000000000004
42
-0.41421356237308915
10
1.7375000000000207
20
12.050000000000001
10
-11.262499999999999
20
12.050000000000001
42
-0.41421356237309503
10
-11.762499999999999
20
12.550000000000001
10
-11.762499999999998
20
25.550000000000001
42
-0.41421356237309503
10
-11.262499999999999
20
26.050000000000001
10
1.7375000000000207
20
26.050000000000001
42
-0.41421356237308887
10
2.23750000000001
20
25.550000000000001
0
LWPOLYLINE
5
124
100
AcDbEntity
8
0
100
AcDbPolyline
90
8
70
1
43
0.0
10
97.487500000000011
20
12.550000000000001
42
-0.41421356237309503
10
96.987500000000011
20
12.050000000000001
10
83.987499999999997
20
12.049999999999994
42
-0.41421356237309503
10
83.487499999999983
20
12.550000000000001
10
83.487499999999983
20
25.550000000000001
42
-0.41421356237309503
10
83.987499999999997
20
26.050000000000001
10
96.987500000000011
20
26.050000000000008
42
-0.41421356237309503
10
97.487500000000011
20
25.550000000000001
0
LWPOLYLINE
5
125
100
AcDbEntity
8
0
100
AcDbPolyline
90
8
70
1
43
0.0
10
78.4375
20
12.550000000000001
42
-0.41421356237309503
10
77.9375
20
12.050000000000001
10
64.9375
20
12.050000000000002
42
-0.41421356237309503
10
64.4375
20
12.550000000000001
10
64.4375
20
25.550000000000001
42
-0.41421356237309503
10
64.9375
20
26.050000000000001
10
77.9375
20
26.050000000000001
42
-0.41421356237309503
10
78.4375
20
25.550000000000001
0
LWPOLYLINE
5
126
100
AcDbEntity
8
0
100
AcDbPolyline
90
8
70
1
43
0.0
10
130.38175000000001
20
13.049999999999995
42
-0.41421356237309503
10
129.88175000000001
20
13.550000000000002
10
129.88175000000001
20
27.550000000000004
42
-0.41421356237309503
10
130.38175000000001
20
28.050000000000001
10
136.38175000000001
20
28.050000000000011
42
-0.41421356237309503
10
136.88175000000004
20
27.550000000000004
10
136.88175000000004
20
13.550000000000002
42
-0.41421356237309503
10
136.38175000000001
20
13.050000000000001
0
LWPOLYLINE
5
127
100
AcDbEntity
8
0
100
AcDbPolyline
90
8
70
1
43
0.0
10
35.575000000000003
20
-25.550000000000001
42
-0.41421356237309503
10
35.075000000000003
20
-26.050000000000001
10
22.074999999999999
20
-26.050000000000001
42
-0.41421356237309503
10
21.575000000000003
20
-25.550000000000001
10
21.574999999999996
20
-12.550000000000001
42
-0.41421356237309503
10
22.074999999999999
20
-12.050000000000001
10
35.075000000000003
20
-12.050000000000002
42
-0.41421356237309503
10
35.575000000000003
20
-12.550000000000001
0
LWPOLYLINE
5
128
100
AcDbEntity
8
0
100
AcDbPolyline
90
8
70
1
43
0.0
10
-135.08750000000001
20
-26.050000000000008
42
-0.41421356237309503
10
-135.58750000000001
20
-25.550000000000001
10
-135.58750000000001
20
-12.550000000000001
42
-0.41421356237309503
10
-135.08750000000001
20
-12.050000000000001
10
-122.08750000000002
20
-12.049999999999994
42
-0.41421356237309503
10
-121.58750000000001
20
-12.550000000000001
10
-121.58750000000001
20
-25.550000000000001
42
-0.41421356237309503
10
-122.08750000000002
20
-26.050000000000001
0
LWPOLYLINE
5
129
100
AcDbEntity
8
0
100
AcDbPolyline
90
8
70
1
43
0.0
10
-88.25
20
-44.600000000000001
42
-0.41421356237309503
10
-88.75
20
-45.099999999999994
10
-101.75
20
-45.100000000000009
42
-0.41421356237309503
10
-102.25000000000001
20
-44.600000000000001
10
-102.25000000000001
20
-31.600000000000001
42
-0.41421356237309503
10
-101.75
20
-31.100000000000001
10
-88.75
20
-31.099999999999994
42
-0.41421356237309503
10
-88.25
20
-31.600000000000001
0
LWPOLYLINE
5
130
100
AcDbEntity
8
0
100
AcDbPolyline
90
8
70
1
43
0.0
10
-16.8125
20
12.550000000000001
42
-0.41421356237309503
10
-17.3125
20
12.050000000000001
10
-30.3125
20
12.050000000000002
42
-0.41421356237309503
10
-30.8125
20
12.550000000000001
10
-30.8125
20
25.550000000000001
42
-0.41421356237309503
10
-30.3125
20
26.050000000000001
10
-17.3125
20
26.050000000000004
42
-0.41421356237309503
10
-16.8125
20
25.550000000000001
0
LWPOLYLINE
5
131
100
AcDbEntity
8
0
100
AcDbPolyline
90
8
70
1
43
0.0
10
-16.024999999999999
20
-26.050000000000004
42
-0.41421356237309503
10
-16.525000000000002
20
-25.550000000000001
10
-16.525000000000002
20
-12.550000000000001
42
-0.41421356237309503
10
-16.024999999999999
20
-12.050000000000001
10
-3.0249999999999999
20
-12.050000000000001
42
-0.41421356237308887
10
-2.5250000000000106
20
-12.550000000000001
10
-2.5250000000000123
20
-25.550000000000001
42
-0.41421356237308887
10
-3.0249999999999999
20
-26.050000000000001
0
LWPOLYLINE
5
132
100
AcDbEntity
8
0
100
AcDbPolyline
90
8
70
1
43
0.0
10
-21.575000000000003
20
-25.550000000000001
42
-0.41421356237309503
10
-22.074999999999999
20
-26.050000000000001
10
-35.075000000000003
20
-26.050000000000001
42
-0.41421356237309503
10
-35.575000000000003
20
-25.550000000000001
10
-35.575000000000003
20
-12.550000000000001
42
-0.41421356237309503
10
-35.075000000000003
20
-12.050000000000001
10
-22.074999999999999
20
-12.050000000000002
42
-0.41421356237309503
10
-21.575000000000003
20
-12.550000000000001
0
LWPOLYLINE
5
133
100
AcDbEntity
8
0
100
AcDbPolyline
90
8
70
1
43
0.0
10
73.674999999999997
20
-25.550000000000001
42
-0.41421356237309503
10
73.174999999999997
20
-26.050000000000001
10
60.174999999999997
20
-26.050000000000001
42
-0.41421356237309503
10
59.675000000000004
20
-25.550000000000001
10
59.675000000000004
20
-12.550000000000001
42
-0.41421356237309503
10
60.174999999999997
20
-12.050000000000001
10
73.174999999999997
20
-12.050000000000002
42
-0.41421356237309503
10
73.674999999999997
20
-12.550000000000001
0
LWPOLYLINE
5
134
100
AcDbEntity
8
0
100
AcDbPolyline
90
8
70
1
43
0.0
10
-59.675000000000004
20
-25.550000000000001
42
-0.41421356237309503
10
-60.174999999999997
20
-26.050000000000001
10
-73.174999999999997
20
-26.050000000000001
42
-0.41421356237309503
10
-73.674999999999997
20
-25.550000000000001
10
-73.674999999999997
20
-12.550000000000001
42
-0.41421356237309503
10
-73.174999999999997
20
-12.050000000000001
10
-60.174999999999997
20
-12.050000000000002
42
-0.41421356237309503
10
-59.675000000000004
20
-12.550000000000001
0
LWPOLYLINE
5
135
100
AcDbEntity
8
0
100
AcDbPolyline
90
8
70
1
43
0.0
10
-113.00575000000002
20
8.5
10
-113.00575000000002
20
-8.5000000000000107
42
0.41421356237309503
10
-112.50575000000001
20
-9.0000000000000107
10
-106.50575000000002
20
-9.0000000000000107
42
0.4142135623730957
10
-106.00575000000001
20
-8.5000000000000107
10
-106.00575000000001
20
8.5
42
0.41421356237309503
10
-106.50575000000002
20
9
10
-112.50575000000001
20
9.0000000000000018
42
0.4142135623730957
0
LWPOLYLINE
5
136
100
AcDbEntity
8
0
100
AcDbPolyline
90
8
70
1
43
0.0
10
59.387500000000003
20
12.550000000000001
42
-0.41421356237309503
10
58.88750000000001
20
12.050000000000001
10
45.887500000000003
20
12.050000000000002
42
-0.41421356237309503
10
45.387500000000003
20
12.550000000000001
10
45.387500000000003
20
25.550000000000001
42
-0.41421356237309503
10
45.887500000000003
20
26.050000000000001
10
58.88750000000001
20
26.050000000000001
42
-0.41421356237309503
10
59.387500000000003
20
25.550000000000001
0
LWPOLYLINE
5
137
100
AcDbEntity
8
0
100
AcDbPolyline
90
8
70
1
43
0.0
10
45.099999999999994
20
-44.600000000000001
42
-0.41421356237309503
10
44.600000000000001
20
-45.099999999999994
10
31.600000000000001
20
-45.099999999999994
42
-0.41421356237309503
10
31.100000000000001
20
-44.600000000000001
10
31.100000000000001
20
-31.600000000000001
42
-0.41421356237309503
10
31.600000000000001
20
-31.100000000000001
10
44.600000000000001
20
-31.100000000000001
42
-0.41421356237309503
10
45.099999999999994
20
-31.600000000000001
0
LWPOLYLINE
5
138
100
AcDbEntity
8
0
100
AcDbPolyline
90
8
70
1
43
0.0
10
-40.625
20
-25.550000000000001
42
-0.41421356237309503
10
-41.125
20
-26.050000000000001
10
-54.125000000000007
20
-26.050000000000001
42
-0.41421356237309503
10
-54.625
20
-25.550000000000001
10
-54.625
20
-12.550000000000001
42
-0.41421356237309503
10
-54.125000000000007
20
-12.050000000000001
10
-41.125
20
-12.050000000000002
42
-0.41421356237309503
10
-40.625
20
-12.550000000000001
0
LWPOLYLINE
5
139
100
AcDbEntity
8
0
100
AcDbPolyline
90
8
70
1
43
0.0
10
60.150000000000006
20
44.100000000000001
42
-0.41421356237309503
10
60.650000000000006
20
43.600000000000001
10
60.650000000000006
20
29.600000000000005
42
-0.41421356237309503
10
60.150000000000006
20
29.100000000000005
10
54.149999999999999
20
29.100000000000005
42
-0.41421356237309503
10
53.650000000000006
20
29.600000000000005
10
53.650000000000006
20
43.600000000000001
42
-0.41421356237309503
10
54.149999999999999
20
44.100000000000001
0
LWPOLYLINE
5
140
100
AcDbEntity
8
0
100
AcDbPolyline
90
8
70
1
43
0.0
10
113.00575000000002
20
13.550000000000002
42
-0.41421356237309503
10
112.50575000000001
20
13.050000000000001
10
106.50575000000002
20
13.049999999999995
42
-0.41421356237309503
10
106.00575000000001
20
13.550000000000002
10
106.00575000000003
20
27.550000000000004
42
-0.41421356237309503
10
106.50575000000002
20
28.050000000000001
10
112.50575000000001
20
28.050000000000011
42
-0.41421356237309503
10
113.00575000000002
20
27.550000000000004
0
LWPOLYLINE
5
141
100
AcDbEntity
8
0
100
AcDbPolyline
90
8
70
1
43
0.0
10
-50.150000000000006
20
-44.600000000000001
10
-50.150000000000006
20
-31.600000000000001
42
0.41421356237309503
10
-50.650000000000006
20
-31.100000000000001
10
-63.650000000000006
20
-31.100000000000001
42
0.41421356237309503
10
-64.150000000000006
20
-31.600000000000001
10
-64.150000000000006
20
-44.600000000000001
42
0.41421356237309503
10
-63.650000000000006
20
-45.100000000000009
10
-50.650000000000006
20
-45.099999999999994
42
0.41421356237309503
0
LWPOLYLINE
5
142
100
AcDbEntity
8
0
100
AcDbPolyline
90
8
70
1
43
0.0
10
-97.775000000000006
20
-25.550000000000001
42
-0.41421356237309503
10
-98.275000000000006
20
-26.050000000000001
10
-111.27500000000001
20
-26.050000000000008
42
-0.41421356237309503
10
-111.77500000000002
20
-25.550000000000001
10
-111.77500000000002
20
-12.550000000000001
42
-0.41421356237309503
10
-111.27500000000001
20
-12.050000000000001
10
-98.275000000000006
20
-12.049999999999994
42
-0.41421356237309503
10
-97.775000000000006
20
-12.550000000000001
0
LWPOLYLINE
5
143
100
AcDbEntity
8
0
100
AcDbPolyline
90
8
70
1
43
0.0
10
6.9999999999999982
20
-44.600000000000001
42
-0.41421356237309503
10
6.5
20
-45.099999999999994
10
-6.5
20
-45.099999999999994
42
-0.41421356237309503
10
-7.0000000000000009
20
-44.600000000000001
10
-6.9999999999999982
20
-31.600000000000001
42
-0.41421356237309503
10
-6.5
20
-31.100000000000001
10
6.5
20
-31.100000000000001
42
-0.41421356237309503
10
7.0000000000000009
20
-31.600000000000001
0
LWPOLYLINE
5
144
100
AcDbEntity
8
0
100
AcDbPolyline
90
8
70
1
43
0.0
10
87.96250000000002
20
-6.5000000000000107
42
-0.41421356237309503
10
87.46250000000002
20
-7.0000000000000107
10
74.462500000000006
20
-7.0000000000000089
42
-0.41421356237309503
10
73.962500000000006
20
-6.5000000000000107
10
73.962500000000006
20
6.4999999999999902
42
-0.41421356237309503
10
74.462500000000006
20
6.9999999999999911
10
87.46250000000002
20
6.9999999999999973
42
-0.41421356237309503
10
87.96250000000002
20
6.4999999999999902
0
LWPOLYLINE
5
145
100
AcDbEntity
8
0
100
AcDbPolyline
90
8
70
1
43
0.0
10
-97.775000000000006
20
31.600000000000001
42
-0.41421356237309503
10
-98.275000000000006
20
31.100000000000001
10
-111.27500000000001
20
31.099999999999994
42
-0.41421356237309503
10
-111.77500000000002
20
31.600000000000001
10
-111.77500000000002
20
44.600000000000001
42
-0.41421356237309503
10
-111.27500000000001
20
45.099999999999994
10
-98.275000000000006
20
45.100000000000009
42
-0.41421356237309503
10
-97.775000000000006
20
44.600000000000001
0
LWPOLYLINE
5
146
100
AcDbEntity
8
0
100
AcDbPolyline
90
8
70
1
43
0.0
10
68.912499999999994
20
-6.5000000000000107
42
-0.41421356237309503
10
68.412499999999994
20
-7.0000000000000107
10
55.412500000000009
20
-7.0000000000000089
42
-0.41421356237309503
10
54.912500000000009
20
-6.5000000000000107
10
54.912500000000009
20
6.4999999999999902
42
-0.41421356237309503
10
55.412500000000009
20
6.9999999999999911
10
68.412499999999994
20
6.9999999999999885
42
-0.41421356237309503
10
68.912499999999994
20
6.4999999999999902
0
LWPOLYLINE
5
147
100
AcDbEntity
8
0
100
AcDbPolyline
90
8
70
1
43
0.0
10
11.762499999999999
20
-6.5000000000000107
10
11.762499999999999
20
6.4999999999999902
42
0.41421356237309503
10
11.262499999999999
20
6.9999999999999911
10
-1.7375000000000203
20
6.9999999999999911
42
0.41421356237308915
10
-2.23750000000001
20
6.4999999999999902
10
-2.23750000000001
20
-6.5000000000000107
42
0.41421356237308887
10
-1.7375000000000207
20
-7.0000000000000107
10
11.262499999999999
20
-7.0000000000000107
42
0.41421356237309503
0
LWPOLYLINE
5
148
100
AcDbEntity
8
0
100
AcDbPolyline
90
8
70
1
43
0.0
10
-96.987500000000011
20
-7.0000000000000178
42
-0.41421356237309503
10
-97.487500000000011
20
-6.5000000000000107
10
-97.487500000000011
20
6.4999999999999902
42
-0.41421356237309503
10
-96.987500000000011
20
6.9999999999999911
10
-83.987499999999997
20
6.9999999999999973
42
-0.41421356237309503
10
-83.487499999999983
20
6.4999999999999902
10
-83.487499999999983
20
-6.5000000000000107
42
-0.41421356237309503
10
-83.987499999999997
20
-7.0000000000000107
0
LWPOLYLINE
5
149
100
AcDbEntity
8
0
100
AcDbPolyline
90
8
70
1
43
0.0
10
83.200000000000003
20
-44.600000000000001
10
83.200000000000003
20
-31.600000000000001
42
0.41421356237309503
10
82.700000000000017
20
-31.100000000000001
10
69.700000000000003
20
-31.100000000000001
42
0.41421356237309503
10
69.200000000000003
20
-31.600000000000001
10
69.200000000000003
20
-44.600000000000001
42
0.41421356237309503
10
69.700000000000003
20
-45.100000000000009
10
82.700000000000017
20
-45.099999999999994
42
0.41421356237309503
0
LWPOLYLINE
5
150
100
AcDbEntity
8
0
100
AcDbPolyline
90
8
70
1
43
0.0
10
-136.88175000000001
20
8.5
10
-136.88175000000001
20
-8.5000000000000107
42
0.41421356237309503
10
-136.38175000000001
20
-9.0000000000000195
10
-130.38175000000001
20
-9.0000000000000107
42
0.4142135623730957
10
-129.88175000000001
20
-8.5000000000000107
10
-129.88175000000001
20
8.5
42
0.41421356237309503
10
-130.38175000000001
20
9
10
-136.38175000000001
20
9.0000000000000018
42
0.4142135623730957
0
LWPOLYLINE
5
151
100
AcDbEntity
8
0
100
AcDbPolyline
90
8
70
1
43
0.0
10
128.44375000000002
20
12.550000000000001
42
-0.41421356237309503
10
127.94375000000001
20
12.050000000000001
10
114.94374999999999
20
12.049999999999994
42
-0.41421356237309503
10
114.44374999999999
20
12.550000000000001
10
114.44375000000001
20
25.550000000000001
42
-0.41421356237309503
10
114.94374999999999
20
26.050000000000001
10
127.94375000000001
20
26.050000000000008
42
-0.41421356237309503
10
128.44375000000002
20
25.550000000000001
0
LWPOLYLINE
5
152
100
AcDbEntity
8
0
100
AcDbPolyline
90
8
70
1
43
0.0
10
-73.962500000000006
20
12.550000000000001
42
-0.41421356237309503
10
-74.462500000000006
20
12.050000000000001
10
-87.46250000000002
20
12.049999999999994
42
-0.41421356237309503
10
-87.96250000000002
20
12.550000000000001
10
-87.962500000000006
20
25.550000000000001
42
-0.41421356237309503
10
-87.46250000000002
20
26.050000000000001
10
-74.462500000000006
20
26.050000000000001
42
-0.41421356237309503
10
-73.962500000000006
20
25.550000000000001
0
LWPOLYLINE
5
153
100
AcDbEntity
8
0
100
AcDbPolyline
90
8
70
1
43
0.0
10
26.837499999999999
20
12.050000000000002
42
-0.41421356237309503
10
26.337499999999999
20
12.550000000000001
10
26.337499999999999
20
25.550000000000001
42
-0.41421356237309503
10
26.837499999999999
20
26.050000000000001
10
39.837499999999999
20
26.049999999999997
42
-0.41421356237309503
10
40.337499999999991
20
25.550000000000001
10
40.337500000000006
20
12.550000000000001
42
-0.41421356237309503
10
39.837499999999999
20
12.050000000000001
0
LWPOLYLINE
5
154
100
AcDbEntity
8
0
100
AcDbPolyline
90
8
70
1
43
0.0
10
-49.362500000000004
20
12.050000000000002
42
-0.41421356237309503
10
-49.862499999999997
20
12.550000000000001
10
-49.862499999999997
20
25.550000000000001
42
-0.41421356237309503
10
-49.362500000000004
20
26.050000000000001
10
-36.362499999999997
20
26.050000000000001
42
-0.41421356237309503
10
-35.862500000000004
20
25.550000000000001
10
-35.862499999999997
20
12.550000000000001
42
-0.41421356237309503
10
-36.362499999999997
20
12.050000000000001
0
LWPOLYLINE
5
155
100
AcDbEntity
8
0
100
AcDbPolyline
90
8
70
1
43
0.0
10
92.725000000000009
20
-25.550000000000001
42
-0.41421356237309503
10
92.224999999999994
20
-26.050000000000001
10
79.224999999999994
20
-26.050000000000001
42
-0.41421356237309503
10
78.724999999999994
20
-25.550000000000001
10
78.724999999999994
20
-12.550000000000001
42
-0.41421356237309503
10
79.224999999999994
20
-12.050000000000001
10
92.224999999999994
20
-12.049999999999994
42
-0.41421356237309503
10
92.725000000000009
20
-12.550000000000001
0
LWPOLYLINE
5
156
100
AcDbEntity
8
0
100
AcDbPolyline
90
8
70
1
43
0.0
10
6.9999999999999982
20
31.600000000000001
42
-0.41421356237309503
10
6.5
20
31.100000000000001
10
-6.5
20
31.100000000000001
42
-0.41421356237309503
10
-7.0000000000000009
20
31.600000000000001
10
-6.9999999999999982
20
44.600000000000001
42
-0.41421356237309503
10
-6.5
20
45.099999999999994
10
6.5
20
45.099999999999994
42
-0.41421356237309503
10
7.0000000000000009
20
44.600000000000001
0
LWPOLYLINE
5
157
100
AcDbEntity
8
0
100
AcDbPolyline
90
8
70
1
43
0.0
10
-121.58750000000001
20
31.600000000000001
10
-121.58750000000001
20
44.600000000000001
42
0.41421356237309503
10
-122.08750000000002
20
45.100000000000009
10
-135.08750000000001
20
45.099999999999994
42
0.41421356237309503
10
-135.58750000000001
20
44.600000000000001
10
-135.58750000000001
20
31.600000000000001
42
0.41421356237309503
10
-135.08750000000001
20
31.100000000000001
10
-122.08750000000002
20
31.100000000000001
42
0.41421356237309503
0
LWPOLYLINE
5
158
100
AcDbEntity
8
0
100
AcDbPolyline
90
8
70
1
43
0.0
10
87.962500000000006
20
31.600000000000001
42
-0.41421356237309503
10
87.46250000000002
20
31.100000000000001
10
74.462500000000006
20
31.100000000000001
42
-0.41421356237309503
10
73.962500000000006
20
31.600000000000001
10
73.962500000000006
20
44.600000000000001
42
-0.41421356237309503
10
74.462500000000006
20
45.099999999999994
10
87.46250000000002
20
45.100000000000009
42
-0.41421356237309503
10
87.96250000000002
20
44.600000000000001
0
LWPOLYLINE
5
159
100
AcDbEntity
8
0
100
AcDbPolyline
90
8
70
1
43
0.0
10
-60.650000000000006
20
43.600000000000001
42
-0.41421356237309503
10
-60.150000000000006
20
44.100000000000001
10
-54.149999999999999
20
44.100000000000001
42
-0.41421356237309503
10
-53.650000000000006
20
43.600000000000001
10
-53.650000000000006
20
29.600000000000005
42
-0.41421356237309503
10
-54.149999999999999
20
29.100000000000005
10
-60.150000000000006
20
29.100000000000005
42
-0.41421356237309503
10
-60.650000000000006
20
29.600000000000005
0
LWPOLYLINE
5
160
100
AcDbEntity
8
0
100
AcDbPolyline
90
8
70
1
43
0.0
10
-126.34999999999999
20
12.550000000000001
42
-0.41421356237309503
10
-126.85000000000001
20
12.050000000000001
10
-139.84999999999999
20
12.049999999999994
42
-0.41421356237309503
10
-140.34999999999999
20
12.550000000000001
10
-140.34999999999999
20
25.550000000000001
42
-0.41421356237309503
10
-139.84999999999999
20
26.050000000000001
10
-126.85000000000001
20
26.050000000000008
42
-0.41421356237309503
10
-126.34999999999999
20
25.550000000000001
0
LWPOLYLINE
5
161
100
AcDbEntity
8
0
100
AcDbPolyline
90
8
70
1
43
0.0
10
-73.962500000000006
20
31.600000000000001
42
-0.41421356237309503
10
-74.462500000000006
20
31.100000000000001
10
-87.46250000000002
20
31.099999999999994
42
-0.41421356237309503
10
-87.96250000000002
20
31.600000000000001
10
-87.962500000000006
20
44.600000000000001
42
-0.41421356237309503
10
-87.46250000000002
20
45.099999999999994
10
-74.462500000000006
20
45.099999999999994
42
-0.41421356237309503
10
-73.962500000000006
20
44.600000000000001
0
LWPOLYLINE
5
162
100
AcDbEntity
8
0
100
AcDbPolyline
90
8
70
1
43
0.0
10
111.77500000000002
20
31.600000000000001
42
-0.41421356237309503
10
111.27500000000001
20
31.100000000000001
10
98.275000000000006
20
31.099999999999994
42
-0.41421356237309503
10
97.775000000000006
20
31.600000000000001
10
97.775000000000006
20
44.600000000000001
42
-0.41421356237309503
10
98.275000000000006
20
45.099999999999994
10
111.27500000000001
20
45.100000000000009
42
-0.41421356237309503
10
111.77500000000002
20
44.600000000000001
0
LWPOLYLINE
5
163
100
AcDbEntity
8
0
100
AcDbPolyline
90
8
70
1
43
0.0
10
-54.912500000000009
20
12.550000000000001
42
-0.41421356237309503
10
-55.412500000000009
20
12.050000000000001
10
-68.412499999999994
20
12.050000000000002
42
-0.41421356237309503
10
-68.912499999999994
20
12.550000000000001
10
-68.912499999999994
20
25.550000000000001
42
-0.41421356237309503
10
-68.412499999999994
20
26.050000000000001
10
-55.412500000000009
20
26.050000000000001
42
-0.41421356237309503
10
-54.912500000000009
20
25.550000000000001
0
LWPOLYLINE
5
164
100
AcDbEntity
8
0
100
AcDbPolyline
90
8
70
1
43
0.0
10
-100.15625
20
12.550000000000001
42
-0.41421356237309503
10
-100.65625
20
12.050000000000001
10
-113.65625000000001
20
12.049999999999994
42
-0.41421356237309503
10
-114.15625000000003
20
12.550000000000001
10
-114.15625000000003
20
25.550000000000001
42
-0.41421356237309503
10
-113.65625000000001
20
26.050000000000001
10
-100.65625
20
26.050000000000008
42
-0.41421356237309503
10
-100.15625
20
25.550000000000001
0
LWPOLYLINE
5
165
100
AcDbEntity
8
0
100
AcDbPolyline
90
8
70
1
43
0.0
10
21.287500000000001
20
12.550000000000001
42
-0.41421356237309503
10
20.787500000000001
20
12.050000000000001
10
7.7874999999999917
20
12.050000000000001
42
-0.41421356237308982
10
7.2874999999999996
20
12.550000000000001
10
7.2875000000000023
20
25.550000000000001
42
-0.41421356237308915
10
7.7874999999999917
20
26.050000000000001
10
20.787500000000001
20
26.050000000000001
42
-0.41421356237309503
10
21.287500000000001
20
25.550000000000001
0
LWPOLYLINE
5
166
100
AcDbEntity
8
0
100
AcDbPolyline
90
8
70
1
43
0.0
10
135.58750000000001
20
31.600000000000001
42
-0.41421356237309503
10
135.08750000000001
20
31.100000000000001
10
122.08750000000002
20
31.099999999999994
42
-0.41421356237309503
10
121.58750000000001
20
31.600000000000001
10
121.58750000000001
20
44.600000000000001
42
-0.41421356237309503
10
122.08750000000002
20
45.099999999999994
10
135.08750000000001
20
45.100000000000009
42
-0.41421356237309503
10
135.58750000000001
20
44.600000000000001
0
LWPOLYLINE
5
167
100
AcDbEntity
8
0
100
AcDbPolyline
90
20
70
1
43
0.0
10
-132.26300000000003
20
-31.100000000000001
10
-132.26300000000003
20
-29.600000000000005
42
0.41421356237309503
10
-132.76300000000001
20
-29.100000000000001
10
-138.76300000000001
20
-29.100000000000005
42
0.41421356237309503
10
-139.26300000000001
20
-29.600000000000005
10
-139.26300000000001
20
-31.100000000000001
10
-139.84999999999999
20
-31.100000000000001
42
0.41421356237309503
10
-140.34999999999999
20
-31.600000000000001
10
-140.34999999999999
20
-44.600000000000001
42
0.41421356237309503
10
-139.84999999999999
20
-45.100000000000009
10
-107.80000000000001
20
-45.099999999999994
42
0.41421356237309503
10
-107.30000000000001
20
-44.600000000000001
10
-107.30000000000001
20
-31.600000000000001
42
0.41421356237309503
10
-107.80000000000001
20
-31.100000000000001
10
-108.38700000000001
20
-31.100000000000001
10
-108.387
20
-29.600000000000005
42
0.41421356237309503
10
-108.887
20
-29.100000000000001
10
-114.88700000000001
20
-29.100000000000005
42
0.41421356237309503
10
-115.387
20
-29.600000000000005
10
-115.387
20
-31.100000000000001
0
ENDSEC
0
SECTION
2
OBJECTS
0
DICTIONARY
5
C
100
AcDbDictionary
3
ACAD_GROUP
350
D
3
ACAD_MLINESTYLE
350
17
0
DICTIONARY
5
D
100
AcDbDictionary
0
DICTIONARY
5
1A
330
C
100
AcDbDictionary
0
DICTIONARY
5
17
100
AcDbDictionary
0
ENDSEC
0
EOF
